<?xml version="1.0" encoding="iso-8859-1"?>
<!-- Generator: Adobe Illustrator 19.0.0, SVG Export Plug-In . SVG Version: 6.00 Build 0)  -->
<svg version="1.1" id="Capa_1" xmlns="http://www.w3.org/2000/svg" xmlns:xlink="http://www.w3.org/1999/xlink" x="0px" y="0px"
	 viewBox="0 0 512.001 512.001" style="enable-background:new 0 0 512.001 512.001;fill:#F6D808;" xml:space="preserve">
<g>
	<g>
		<path d="M477.69,496.165h-23.753V208.536c0-0.014,0.002-0.028,0.002-0.041c0-15.498-1.795-30.942-5.353-45.89
			c-3.452-14.547-8.572-28.704-15.223-42.09c-1.351-2.713-4.075-4.392-7.105-4.392c-1.225,0-2.407,0.274-3.516,0.824
			c-3.906,1.942-5.51,6.703-3.568,10.62c6.123,12.32,10.831,25.336,14.009,38.691c3.26,13.735,4.917,27.944,4.919,42.207
			c0,0.01-0.002,0.022-0.002,0.032v1.372c-3.776-2.532-8.314-4.011-13.192-4.011c-4.882,0-9.422,1.481-13.2,4.016v-1.296
			c0-0.028,0.004-0.054,0.004-0.081c0-38.897-14.421-76.139-40.605-104.865c-24.118-26.459-56.31-43.67-91.375-49.038
			c-0.096-2.791-0.676-5.459-1.659-7.926c7.921-2.159,14.204-8.321,16.534-16.17c8.949,1.929,17.758,4.536,26.283,7.791
			c11,4.202,21.641,9.501,31.639,15.762c9.881,6.196,19.224,13.386,27.775,21.366c8.519,7.96,16.321,16.785,23.172,26.224
			c1.478,2.047,3.885,3.272,6.408,3.272c1.678,0,3.283-0.528,4.645-1.521c3.537-2.555,4.328-7.517,1.763-11.053
			c-7.442-10.25-15.909-19.836-25.178-28.493c-9.279-8.677-19.434-16.49-30.181-23.213c-10.872-6.809-22.442-12.573-34.392-17.134
			c-10.676-4.068-21.749-7.22-32.999-9.379C289.839,5.81,281.507,0,271.838,0c-6.079,0-11.629,2.298-15.835,6.068
			C251.797,2.298,246.247,0,240.168,0c-9.669,0-18.002,5.81-21.704,14.121c-43.838,8.428-83.829,31.701-113.028,65.884
			C74.888,115.767,58.065,161.4,58.065,208.497v287.668H34.312c-4.373,0-7.918,3.544-7.918,7.918c0,4.373,3.545,7.918,7.918,7.918
			h443.377c4.373,0,7.918-3.544,7.918-7.918C485.607,499.709,482.062,496.165,477.69,496.165z M271.838,15.835
			c4.366,0,7.918,3.552,7.918,7.918c0,4.366-3.552,7.918-7.918,7.918c-4.366,0-7.918-3.552-7.918-7.918
			C263.92,19.387,267.472,15.835,271.838,15.835z M256.003,47.506c4.366,0,7.918,3.551,7.918,7.918s-3.552,7.918-7.918,7.918
			c-4.366,0-7.918-3.552-7.918-7.918C248.085,51.058,251.636,47.506,256.003,47.506z M267.483,115.048l-11.48,22.961l-11.48-22.961
			l11.48-11.48L267.483,115.048z M240.168,15.835c4.366,0,7.918,3.552,7.918,7.918c0,4.366-3.552,7.918-7.918,7.918
			c-4.366,0-7.918-3.552-7.918-7.918C232.25,19.387,235.802,15.835,240.168,15.835z M100.292,496.165H73.9v-15.833h26.392V496.165z
			 M100.292,464.497H73.9v-93.748c3.777,2.534,8.316,4.014,13.196,4.014c4.879,0,9.419-1.48,13.196-4.014V464.497z M79.177,351.01
			c0-4.366,3.551-7.918,7.918-7.918c4.367,0.001,7.918,3.552,7.918,7.918c0,4.366-3.552,7.918-7.918,7.918
			C82.729,358.928,79.177,355.376,79.177,351.01z M100.292,292.908c0,0.014-0.002,0.028-0.002,0.041
			c0,0.013,0.002,0.027,0.002,0.041v38.282c-3.777-2.534-8.317-4.014-13.196-4.014c-4.879,0-9.419,1.48-13.196,4.014v-81.924
			c3.777,2.534,8.316,4.015,13.196,4.015c4.879,0,9.419-1.48,13.196-4.014V292.908z M79.178,229.61c0-4.366,3.551-7.918,7.918-7.918
			c4.366,0,7.918,3.551,7.918,7.918c0,4.366-3.552,7.918-7.918,7.918C82.73,237.528,79.178,233.976,79.178,229.61z M100.292,208.498
			v0.001v1.373c-3.777-2.534-8.317-4.014-13.196-4.014c-4.879,0-9.419,1.48-13.196,4.014v-1.375
			c0-43.33,15.476-85.31,43.577-118.208c25.963-30.395,61.194-51.412,99.921-59.789c2.33,7.848,8.613,14.009,16.533,16.168
			c-0.982,2.466-1.562,5.134-1.659,7.923c-35.142,5.38-67.402,22.664-91.528,49.209
			C114.658,132.501,100.292,169.684,100.292,208.498L100.292,208.498z M279.757,496.165h-47.506v-58.064h47.506V496.165z
			 M224.334,422.266h-0.001h-0.001c-7.276,0-13.196-5.92-13.196-13.196v-2.639h0h89.734v2.639c0,7.276-5.92,13.196-13.196,13.196
			H224.334z M190.023,390.596v-15.835h131.961v15.835H190.023z M395.87,496.166H295.593v-59.172
			c12.17-3.456,21.112-14.662,21.112-27.924v-2.639h13.196c4.373,0,7.918-3.544,7.918-7.918v-31.67c0-4.373-3.545-7.918-7.918-7.918
			H182.105c-4.373,0-7.918,3.544-7.918,7.918v31.67c0,4.373,3.545,7.918,7.918,7.918h13.196v2.639
			c0,13.263,8.944,24.47,21.115,27.925v59.17h-100.29V300.866h2.637c0.01,0,0.01,0,0.021,0c7.749-0.01,15.033-3.02,20.511-8.498
			c5.479-5.49,8.498-12.774,8.498-20.533v-63.34c0.01-23.013,8.889-44.719,24.998-61.102c3.062-3.114,3.03-8.139-0.085-11.201
			c-1.488-1.467-3.462-2.27-5.553-2.27c-2.143,0-4.149,0.834-5.648,2.365c-9.268,9.406-16.542,20.354-21.62,32.514
			c-5.268,12.595-7.928,25.948-7.928,39.694v63.34c0,3.526-1.373,6.84-3.864,9.332c-2.481,2.48-5.796,3.854-9.332,3.864h-2.637
			v-76.532v-0.001v-0.001c0-34.866,12.904-68.266,36.335-94.046c22.248-24.479,52.188-40.189,84.716-44.566
			c2.771,3.6,6.547,6.385,10.907,7.931v11.275l-16.533,16.533c-6.934,0.222-13.828,1.134-20.534,2.72
			c-7.558,1.795-14.916,4.455-21.873,7.907c-3.906,1.942-5.511,6.703-3.568,10.609c1.341,2.713,4.064,4.402,7.094,4.402
			c1.225,0,2.396-0.274,3.494-0.824c0.011,0,0.011,0,0.021,0c10.641-5.284,22.013-8.268,33.875-8.904l18.86,37.721
			c0.019,0.038,0.044,0.07,0.064,0.107c0.153,0.296,0.319,0.585,0.509,0.86c0.005,0.007,0.009,0.014,0.013,0.022
			c0.188,0.269,0.399,0.524,0.621,0.77c0.062,0.069,0.125,0.135,0.189,0.201c0.18,0.186,0.37,0.363,0.57,0.533
			c0.057,0.047,0.11,0.099,0.168,0.145c0.245,0.196,0.504,0.377,0.776,0.546c0.081,0.049,0.165,0.093,0.247,0.139
			c0.127,0.073,0.251,0.149,0.383,0.217c0.071,0.036,0.145,0.06,0.217,0.093c0.126,0.059,0.253,0.112,0.382,0.164
			c0.202,0.081,0.404,0.153,0.608,0.215c0.112,0.035,0.223,0.07,0.336,0.1c0.241,0.063,0.482,0.111,0.724,0.15
			c0.089,0.014,0.175,0.034,0.264,0.045c0.335,0.043,0.67,0.07,1.004,0.07c0.002,0,0.004,0,0.006,0s0.004,0,0.006,0
			c0.333,0,0.667-0.027,1.001-0.07c0.092-0.011,0.181-0.032,0.273-0.047c0.239-0.039,0.476-0.086,0.713-0.147
			c0.117-0.031,0.231-0.067,0.346-0.103c0.201-0.063,0.401-0.133,0.599-0.212c0.13-0.052,0.258-0.106,0.385-0.165
			c0.072-0.033,0.146-0.057,0.217-0.093c0.133-0.067,0.258-0.144,0.386-0.218c0.081-0.046,0.164-0.089,0.244-0.138
			c0.273-0.168,0.532-0.35,0.778-0.546c0.057-0.045,0.109-0.097,0.165-0.144c0.2-0.17,0.392-0.348,0.572-0.535
			c0.064-0.066,0.127-0.131,0.189-0.199c0.222-0.247,0.433-0.502,0.621-0.772c0.005-0.006,0.008-0.013,0.012-0.02
			c0.191-0.275,0.357-0.565,0.511-0.861c0.019-0.037,0.044-0.069,0.063-0.107l18.856-37.712
			c45.785,2.515,82.264,40.551,82.264,86.953v63.34c0,16.007,13.023,29.031,29.031,29.031h2.639V496.166z M395.875,208.499v76.532
			h-2.639c-7.276,0-13.196-5.92-13.196-13.196v-63.34c0-55.635-44.371-101.095-99.583-102.868l-16.536-16.536V77.815
			c4.36-1.546,8.136-4.331,10.907-7.93c32.459,4.37,62.337,20.014,84.578,44.414c23.506,25.788,36.457,59.215,36.472,94.133
			C395.878,208.455,395.875,208.476,395.875,208.499z M424.91,221.693c4.366,0,7.918,3.551,7.918,7.918
			c0,4.366-3.552,7.918-7.918,7.918c-4.366,0-7.918-3.552-7.918-7.918C416.993,225.244,420.544,221.693,424.91,221.693z
			 M438.102,496.165H411.71v-16.536h26.392V496.165z M438.102,463.794H411.71v-93.047c3.778,2.534,8.319,4.016,13.2,4.016
			c4.878,0,9.415-1.479,13.192-4.011V463.794z M416.993,351.01c0-4.366,3.551-7.918,7.918-7.918c4.366,0,7.918,3.552,7.918,7.918
			c0,4.366-3.552,7.918-7.918,7.918C420.544,358.928,416.993,355.376,416.993,351.01z M438.102,331.27
			c-3.776-2.532-8.314-4.011-13.192-4.011c-4.882,0-9.422,1.481-13.2,4.017v-81.928c3.778,2.533,8.319,4.015,13.2,4.015
			c4.878,0,9.415-1.479,13.192-4.011V331.27z"/>
	</g>
</g>
<g>
</g>
<g>
</g>
<g>
</g>
<g>
</g>
<g>
</g>
<g>
</g>
<g>
</g>
<g>
</g>
<g>
</g>
<g>
</g>
<g>
</g>
<g>
</g>
<g>
</g>
<g>
</g>
<g>
</g>
</svg>
