<?xml version="1.0" encoding="iso-8859-1"?>
<!-- Generator: Adobe Illustrator 22.1.0, SVG Export Plug-In . SVG Version: 6.00 Build 0)  -->
<svg xmlns="http://www.w3.org/2000/svg" xmlns:xlink="http://www.w3.org/1999/xlink" version="1.1" id="Layer_3" x="0px" y="0px" viewBox="0 0 64 64" style="enable-background:new 0 0 64 64;fill:#F6D808;" xml:space="preserve" width="512" height="512">
<g>
	<path d="M35,12c0-1.654-1.346-3-3-3s-3,1.346-3,3s1.346,3,3,3S35,13.654,35,12z M32,13c-0.552,0-1-0.449-1-1s0.448-1,1-1   s1,0.449,1,1S32.552,13,32,13z"/>
	<path d="M58,19c0-3.309-2.691-6-6-6c-0.027,0-0.056,0-0.083,0C51.439,10.166,48.968,8,46,8c-1.042,0-2.051,0.282-2.944,0.786   C41.974,7.091,40.07,5.968,37.917,6C37.439,3.166,34.968,1,32,1s-5.439,2.166-5.917,5C26.056,6,26.027,6,26,6   c-2.126,0-3.992,1.114-5.058,2.786C20.049,8.282,19.042,8,18,8c-2.968,0-5.439,2.166-5.917,5C8.73,12.924,6,15.664,6,19   c0,1.804,0.802,3.429,2.066,4.532l1.944,13.609c0.04,0.281,0.199,0.533,0.436,0.69l11.103,7.402C21.195,45.864,21,46.578,21,47.322   v0.355c0,1.453,0.735,2.799,1.967,3.602c0.454,0.296,0.955,0.491,1.473,0.605l-5.334,10.668l1.789,0.895l5.835-11.67   c0.098-0.031,0.198-0.047,0.294-0.084l1.755-0.687l-1.759,8.797l1.961,0.393l1.805-9.025c0.372,0.166,0.781,0.262,1.215,0.262   c0.433,0,0.842-0.096,1.215-0.262l1.805,9.025l1.961-0.393l-1.759-8.797l1.755,0.687c0.096,0.038,0.196,0.054,0.294,0.084   l5.835,11.67l1.789-0.895L39.56,51.884c0.518-0.114,1.019-0.309,1.473-0.605C42.265,50.477,43,49.13,43,47.678v-0.355   c0-0.744-0.195-1.458-0.549-2.088l11.104-7.402c0.236-0.158,0.396-0.409,0.436-0.69l1.946-13.624C57.198,22.416,58,20.802,58,19z    M26,8c0.272,0,0.545,0.027,0.809,0.082c0.299,0.062,0.61-0.017,0.845-0.213c0.234-0.196,0.365-0.489,0.357-0.794   C28.009,7.033,28.006,6.991,28,6.949C28.028,4.767,29.812,3,32,3c2.189,0,3.975,1.769,4,3.953c-0.005,0.042-0.01,0.094-0.011,0.122   c-0.008,0.305,0.123,0.598,0.357,0.794c0.234,0.197,0.544,0.275,0.845,0.213C37.455,8.027,37.728,8,38,8c2.206,0,4,1.794,4,4   s-1.794,4-4,4c-0.272,0-0.545-0.027-0.809-0.082c-0.301-0.06-0.61,0.017-0.845,0.213c-0.148,0.124-0.236,0.291-0.292,0.47   C34.984,15.615,33.567,15,32,15s-2.984,0.615-4.054,1.602c-0.057-0.179-0.145-0.346-0.292-0.47   c-0.234-0.197-0.546-0.273-0.845-0.213C26.545,15.973,26.272,16,26,16c-2.206,0-4-1.794-4-4S23.794,8,26,8z M36,31.051   C35.972,33.233,34.188,35,32,35c-2.189,0-3.975-1.769-4-3.953c0.005-0.042,0.01-0.094,0.011-0.122   c0.008-0.305-0.123-0.598-0.357-0.794s-0.546-0.274-0.845-0.213C26.545,29.973,26.272,30,26,30c-2.206,0-4-1.794-4-4s1.794-4,4-4   c0.272,0,0.545,0.027,0.809,0.082c0.299,0.061,0.61-0.017,0.845-0.213s0.365-0.489,0.357-0.794   c-0.002-0.042-0.005-0.083-0.011-0.126C28.028,18.767,29.812,17,32,17c2.189,0,3.975,1.769,4,3.953   c-0.005,0.042-0.01,0.094-0.011,0.122c-0.008,0.305,0.123,0.598,0.357,0.794s0.544,0.274,0.845,0.213   C37.455,22.027,37.728,22,38,22c2.206,0,4,1.794,4,4s-1.794,4-4,4c-0.272,0-0.545-0.027-0.809-0.082   c-0.301-0.061-0.61,0.017-0.845,0.213s-0.365,0.489-0.357,0.794C35.991,30.967,35.994,31.009,36,31.051z M12,15   c0.272,0,0.545,0.027,0.809,0.082c0.3,0.061,0.61-0.017,0.845-0.213c0.234-0.196,0.365-0.489,0.357-0.794   c-0.002-0.042-0.005-0.083-0.011-0.126C14.028,11.767,15.812,10,18,10c0.773,0,1.519,0.231,2.16,0.644   C20.059,11.081,20,11.533,20,12c0,3.335,2.785,6.042,6.082,6c0.057,0.337,0.152,0.666,0.266,0.989   c-0.116,0.325-0.206,0.663-0.265,1.012c-0.027,0-0.056,0-0.083,0c-3.309,0-6,2.691-6,6c0,0.466,0.06,0.919,0.162,1.354   C19.52,27.769,18.774,28,18,28c-2.189,0-3.975-1.769-4-3.953c0.005-0.042,0.01-0.094,0.011-0.122   c0.008-0.305-0.123-0.598-0.357-0.794c-0.234-0.197-0.545-0.273-0.845-0.213C12.545,22.973,12.272,23,12,23c-2.206,0-4-1.794-4-4   S9.794,15,12,15z M26.295,49.831c-0.738,0.289-1.574,0.205-2.236-0.227C23.396,49.172,23,48.452,23,47.678v-0.355   c0-0.774,0.396-1.494,1.059-1.927c0.662-0.43,1.498-0.515,2.236-0.227l2.738,1.071C29.021,46.349,29,46.455,29,46.566v1.867   c0,0.112,0.021,0.218,0.033,0.327L26.295,49.831z M33,48.434c0,0.551-0.448,1-1,1s-1-0.449-1-1v-1.867c0-0.551,0.448-1,1-1   s1,0.449,1,1V48.434z M41,47.678c0,0.774-0.396,1.494-1.059,1.927c-0.662,0.431-1.498,0.515-2.236,0.227l-2.738-1.071   C34.979,48.651,35,48.545,35,48.434v-1.867c0-0.112-0.021-0.218-0.033-0.327l2.738-1.071c0.738-0.288,1.574-0.205,2.236,0.227   C40.604,45.828,41,46.548,41,47.322V47.678z M52.073,36.416L41.072,43.75c-0.014-0.009-0.025-0.02-0.039-0.029   c-1.202-0.784-2.719-0.938-4.057-0.414l-2.875,1.124c-0.542-0.533-1.283-0.865-2.102-0.865s-1.56,0.331-2.102,0.865l-2.875-1.124   c-1.337-0.524-2.854-0.37-4.057,0.414c-0.014,0.009-0.026,0.02-0.04,0.029l-11-7.334l-1.666-11.663   c0.576,0.172,1.187,0.26,1.822,0.246c0.478,2.834,2.949,5,5.917,5c1.045,0,2.057-0.283,2.952-0.791   c1.09,1.695,3.001,2.817,5.131,2.79c0.478,2.834,2.949,5,5.917,5s5.439-2.166,5.917-5c2.155,0.03,4.057-1.092,5.139-2.786   C43.949,29.718,44.958,30,46,30c2.968,0,5.439-2.166,5.917-5c0.027,0,0.056,0,0.083,0c0.605,0,1.19-0.092,1.741-0.26L52.073,36.416   z M52,23c-0.272,0-0.545-0.027-0.809-0.082c-0.299-0.06-0.61,0.017-0.845,0.213c-0.234,0.196-0.365,0.489-0.357,0.794   c0.002,0.042,0.005,0.083,0.011,0.126C49.972,26.233,48.188,28,46,28c-0.773,0-1.519-0.231-2.161-0.644   C43.941,26.919,44,26.467,44,26c0-3.336-2.748-6.051-6.083-6c-0.059-0.349-0.149-0.687-0.266-1.013   c0.114-0.323,0.21-0.651,0.267-0.988C41.256,18.047,44,15.336,44,12c0-0.467-0.059-0.92-0.161-1.357C44.481,10.23,45.227,10,46,10   c2.189,0,3.975,1.769,4,3.953c-0.005,0.042-0.01,0.094-0.011,0.122c-0.008,0.305,0.123,0.598,0.357,0.794   c0.234,0.197,0.546,0.274,0.845,0.213C51.455,15.027,51.728,15,52,15c2.206,0,4,1.794,4,4S54.206,23,52,23z"/>
	<path d="M46,16c-1.654,0-3,1.346-3,3s1.346,3,3,3s3-1.346,3-3S47.654,16,46,16z M46,20c-0.552,0-1-0.449-1-1s0.448-1,1-1   s1,0.449,1,1S46.552,20,46,20z"/>
	<path d="M18,22c1.654,0,3-1.346,3-3s-1.346-3-3-3s-3,1.346-3,3S16.346,22,18,22z M18,18c0.552,0,1,0.449,1,1s-0.448,1-1,1   s-1-0.449-1-1S17.448,18,18,18z"/>
	<path d="M32,23c-1.654,0-3,1.346-3,3s1.346,3,3,3s3-1.346,3-3S33.654,23,32,23z M32,27c-0.552,0-1-0.449-1-1s0.448-1,1-1   s1,0.449,1,1S32.552,27,32,27z"/>
</g>
</svg>
