<svg height="512pt" style="fill:#F6D808;" viewBox="0 0 512 512" width="512pt" xmlns="http://www.w3.org/2000/svg"><path d="m183.464844 95.730469c2.628906 0 5.207031-1.070313 7.070312-2.929688 1.859375-1.859375 2.929688-4.441406 2.929688-7.070312 0-2.640625-1.070313-5.210938-2.929688-7.070313-1.863281-1.871094-4.441406-2.929687-7.070312-2.929687-2.632813 0-5.210938 1.058593-7.070313 2.929687-1.859375 1.859375-2.929687 4.429688-2.929687 7.070313 0 2.628906 1.070312 5.210937 2.929687 7.070312s4.4375 2.929688 7.070313 2.929688zm0 0"/><path d="m29.214844 95.730469c2.628906 0 5.207031-1.070313 7.070312-2.929688 1.859375-1.859375 2.929688-4.441406 2.929688-7.070312 0-2.640625-1.070313-5.210938-2.929688-7.070313-1.863281-1.871094-4.441406-2.929687-7.070312-2.929687-2.632813 0-5.210938 1.058593-7.070313 2.929687-1.859375 1.859375-2.929687 4.429688-2.929687 7.070313 0 2.628906 1.070312 5.210937 2.929687 7.070312s4.4375 2.929688 7.070313 2.929688zm0 0"/><path d="m474.921875 246.984375c-24.554687-12.597656-59.867187-18.984375-104.957031-18.984375-11.230469 0-22.015625.410156-32.085938 1.21875-10.117187-.8125-20.871094-1.21875-32.25-1.21875-41.15625 0-74.164062 5.324219-98.28125 15.832031 8.554688-23.988281 2.816406-45.609375 1-51.296875-.882812-3.015625-3.148437-5.476562-6.160156-6.578125-.46875-.171875-3.648438-1.296875-8.722656-2.285156v-57.945313c0-5.523437-4.476563-10-10-10-5.523438 0-10 4.476563-10 10v56.472657c-6.617188.296875-13.972656 1.421875-21.613282 3.972656 1.363282-5.898437 2.152344-12.351563 2.152344-19.394531 0-40.070313-25.589844-61.191406-37.988281-69.078125v-87.699219c0-5.523438-4.476563-10-10-10s-10 4.476562-10 10v87.640625c-11.933594 7.523437-37.992187 28.59375-37.992187 69.136719 0 7.058594.796874 13.523437 2.160156 19.429687-7.390625-2.480469-14.519532-3.621093-20.972656-3.972656v-56.507813c0-5.523437-4.476563-10-10-10-5.523438 0-10 4.476563-10 10v57.804688c-5.507813 1.019531-8.976563 2.246094-9.46875 2.425781-3.011719 1.101563-5.277344 3.5625-6.164063 6.574219-2.417969 7.527344-12.558594 45.738281 17.75 78.722656-6.730469 1.066406-11.035156 2.589844-11.585937 2.789063-3.011719 1.101562-5.277344 3.5625-6.164063 6.574219-2.417969 7.523437-12.554687 45.707031 17.714844 78.679687-6.710938 1.066406-11 2.585937-11.554688 2.785156-3.007812 1.101563-5.273437 3.5625-6.160156 6.574219-2.488281 7.742188-13.152344 47.9375 20.433594 81.523438 19.4375 19.4375 41.015625 24.074218 57.183593 24.074218 5.683594 0 10.679688-.574218 14.699219-1.28125v29.027344c0 5.523438 4.476563 10 10 10 5.523438 0 10-4.476562 10-10v-29.050781c4.042969.71875 9.085938 1.304687 14.835938 1.304687 16.167969 0 37.75-4.636718 57.183593-24.070312 1.316407-1.320313 2.558594-2.648438 3.746094-3.984375v42.6875c0 12.746093 10.367188 23.113281 23.113282 23.113281h246.046874c12.742188 0 23.113282-10.367188 23.113282-23.113281v-141.828125c0-2.949219 1.453125-5.785156 3.890625-7.582032 15.792969-11.648437 24.136719-25.628906 24.136719-40.425781.003906-21.320312-13.152344-39.8125-37.039063-52.066406zm-471.621094-53.222656c.09375-.589844.21875-1.042969.277344-1.226563-.117187.402344-.210937.808594-.277344 1.226563zm.003907 88.074219c.09375-.585938.21875-1.03125.273437-1.214844-.117187.398437-.207031.800781-.273437 1.214844zm0 88.039062c.09375-.585938.21875-1.03125.273437-1.214844-.117187.398438-.207031.800782-.273437 1.214844zm188.355468-11.738281v1.332031c-.335937-.058594-.683594-.117188-1.03125-.171875.351563-.382813.6875-.773437 1.03125-1.160156zm-17.890625-10.136719c-6.6875 6.6875-13.703125 11.058594-20.503906 13.835938-1.730469.542968-3.476563 1.152343-5.234375 1.847656-12.925781 3.894531-24.488281 2.507812-30.679688 1.171875-2.164062-10.175781-4.523437-35.082031 16.835938-56.4375 6.363281-6.363281 13.433594-11.0625 21.136719-14.089844 1.308593-.421875 2.625-.882813 3.949219-1.390625 1.613281-.5 3.246093-.941406 4.910156-1.300781-.363282 2.429687-.554688 4.902343-.554688 7.417969 0 13.332031 6.804688 26 19.703125 36.902343-2.609375 4.253907-5.808593 8.292969-9.5625 12.042969zm-79.171875 37.152344c6.238282-.992188 10.375-2.363282 11.367188-2.714844.988281.351562 5.125 1.722656 11.363281 2.714844-4.699219 5.121094-8.429687 10.359375-11.363281 15.585937-2.9375-5.226562-6.667969-10.464843-11.367188-15.585937zm-.039062-88.078125c6.261718-.996094 10.410156-2.371094 11.40625-2.722657.992187.351563 5.140625 1.726563 11.402344 2.722657-4.71875 5.128906-8.460938 10.386719-11.402344 15.625-2.945313-5.238281-6.6875-10.492188-11.40625-15.625zm96.011718-93.609375c2.332032 10.921875 4.324219 35.328125-16.800781 56.449218-21.429687 21.433594-46.242187 19.050782-56.429687 16.851563-2.070313-9.585937-4.277344-31.984375 13.117187-52.398437 1.378907-1.375 2.765625-2.847657 4.140625-4.433594 21.304688-20.957032 45.816406-18.648438 55.972656-16.46875zm-84.605468-88.480469c9.375 6.070313 28.039062 21.917969 28.039062 51.792969 0 17.917968-6.71875 30.78125-14.023437 39.476562-1.519531 1.523438-2.945313 3.0625-4.292969 4.609375-3.617188 3.523438-7.089844 6.070313-9.660156 7.726563-2.910156-1.890625-6.996094-4.929688-11.148438-9.257813-.484375-.527343-.96875-1.054687-1.472656-1.578125-7.804688-8.707031-15.382812-22.035156-15.382812-40.976562 0-30.257813 19.164062-46.117188 27.941406-51.792969zm-84.609375 88.484375c10.261719-2.199219 35.007812-4.515625 56.386719 16.859375.144531.148437.277343.292969.417968.441406.808594.902344 1.617188 1.765625 2.425782 2.597657 12.324218 13.898437 15.363281 28.832031 15.386718 40.085937v.035156c.011719 5.488281-.695312 10.09375-1.378906 13.277344-6.308594 1.355469-18.152344 2.769531-31.328125-1.363281-1.300781-.496094-2.59375-.953125-3.875-1.367188-7.027344-2.761718-14.308594-7.191406-21.234375-14.121094-21.121094-21.121093-19.132812-45.523437-16.800781-56.445312zm-.003907 88.097656c6.371094-1.34375 18.4375-2.75 31.789063 1.554688.949219.355468 1.898437.695312 2.839844 1.007812 7.199219 2.734375 14.675781 7.199219 21.757812 14.285156 14.714844 14.710938 18.203125 31.015626 18.234375 43.089844v.066406c.007813 5.480469-.691406 10.082032-1.378906 13.265626-6.257812 1.328124-18.082031 2.722656-31.222656-1.355469-1.414063-.542969-2.816406-1.039063-4.210938-1.484375-6.964844-2.757813-14.164062-7.15625-21.003906-13.996094-21.113281-21.113281-19.132812-45.503906-16.804688-56.433594zm73.242188 161.308594c-10.175781 2.160156-35.082031 4.519531-56.4375-16.835938-21.113281-21.113281-19.132812-45.503906-16.800781-56.433593 6.269531-1.324219 18.0625-2.699219 31.164062 1.367187 1.40625.539063 2.804688 1.03125 4.191407 1.472656 6.972656 2.761719 14.183593 7.160157 21.03125 14.007813 14.710937 14.710937 18.203124 31.015625 18.234374 43.089844v.066406c0 .152344-.003906.300781-.007812.453125-.042969.378906-.070312.765625-.070312 1.160156v1.625c-.203126 4.058594-.757813 7.496094-1.304688 10.027344zm79.175781-16.835938c-21.421875 21.425782-46.21875 19.054688-56.417969 16.855469-2.164062-10.175781-4.523437-35.082031 16.835938-56.441406 6.699219-6.695313 13.726562-11.066406 20.535156-13.847656 1.71875-.535157 3.457032-1.144531 5.203125-1.832031 12.898438-3.886719 24.445313-2.511719 30.644531-1.183594.417969 1.960937.824219 4.363281 1.089844 7.101562v12.316406c-1.105468 11.234376-5.546875 24.691407-17.890625 37.03125zm37.890625 52.847657v-141.828125c0-9.269532-4.492187-18.121094-12.019531-23.675782-7.304687-5.390624-16.011719-13.984374-16.011719-24.332031 0-31.488281 46.75-51.050781 122-51.050781 75.253906 0 122 19.5625 122 51.050781 0 10.347657-8.707031 18.941407-16.011718 24.332031-7.523438 5.554688-12.015626 14.402344-12.015626 23.675782v141.828125c0 1.714843-1.398437 3.113281-3.117187 3.113281h-181.710937c-1.714844 0-3.113282-1.398438-3.113282-3.113281zm264.289063-165.503907c-7.523438 5.554688-12.015625 14.40625-12.015625 23.675782v141.828125c0 1.714843-1.398438 3.113281-3.113282 3.113281h-41.4375c.140626-1.019531.21875-2.058594.21875-3.113281v-141.828125c0-2.949219 1.453126-5.78125 3.890626-7.582032 15.792968-11.652343 24.136718-25.628906 24.136718-40.425781 0-19.050781-10.507812-35.835937-29.785156-47.9375 46.675781 6.6875 74.121094 23.8125 74.121094 47.9375 0 10.347657-8.707032 18.941407-16.015625 24.332031zm0 0"/><path d="m259.535156 302.429688c-3.90625-3.90625-10.238281-3.90625-14.144531 0l-3.75 3.75c-3.902344 3.90625-3.902344 10.234374 0 14.140624 1.953125 1.953126 4.511719 2.929688 7.070313 2.929688 2.558593 0 5.121093-.976562 7.074218-2.929688l3.75-3.75c3.902344-3.90625 3.902344-10.234374 0-14.140624zm0 0"/><path d="m323.765625 324.195312c1.953125 1.953126 4.515625 2.929688 7.074219 2.929688s5.117187-.976562 7.070312-2.929688c3.902344-3.90625 3.902344-10.234374 0-14.140624l-3.875-3.875c-3.90625-3.90625-10.238281-3.90625-14.144531 0-3.902344 3.902343-3.902344 10.234374 0 14.140624zm0 0"/><path d="m267.890625 361.210938-4.855469 4.859374c-3.90625 3.902344-3.90625 10.234376 0 14.140626 1.953125 1.953124 4.511719 2.929687 7.070313 2.929687 2.558593 0 5.117187-.976563 7.070312-2.929687l4.859375-4.859376c3.902344-3.902343 3.902344-10.234374 0-14.140624-3.90625-3.90625-10.238281-3.90625-14.144531 0zm0 0"/><path d="m354.394531 373.710938 6.140625-6.140626c3.90625-3.90625 3.90625-10.234374 0-14.140624s-10.238281-3.90625-14.144531 0l-6.140625 6.140624c-3.902344 3.902344-3.902344 10.234376 0 14.140626 1.953125 1.953124 4.511719 2.929687 7.074219 2.929687 2.558593 0 5.117187-.976563 7.070312-2.929687zm0 0"/><path d="m238.890625 426.429688-5.25 5.25c-3.902344 3.90625-3.902344 10.234374 0 14.140624 1.953125 1.953126 4.515625 2.929688 7.074219 2.929688s5.117187-.976562 7.070312-2.929688l5.25-5.25c3.902344-3.902343 3.902344-10.234374 0-14.140624-3.90625-3.90625-10.238281-3.90625-14.144531 0zm0 0"/><path d="m314.390625 405.929688-5 5c-3.902344 3.90625-3.902344 10.234374 0 14.140624 1.953125 1.953126 4.515625 2.929688 7.074219 2.929688s5.117187-.976562 7.070312-2.929688l5-5c3.902344-3.902343 3.902344-10.234374 0-14.140624-3.90625-3.90625-10.238281-3.90625-14.144531 0zm0 0"/><path d="m355.390625 449.929688-7 7c-3.902344 3.90625-3.902344 10.234374 0 14.140624 1.953125 1.953126 4.515625 2.929688 7.074219 2.929688s5.117187-.976562 7.070312-2.929688l7-7c3.902344-3.902343 3.902344-10.234374 0-14.140624-3.90625-3.90625-10.238281-3.90625-14.144531 0zm0 0"/></svg>