<?xml version="1.0" encoding="utf-8"?>
<!-- Generator: Adobe Illustrator 22.1.0, SVG Export Plug-In . SVG Version: 6.00 Build 0)  -->
<svg version="1.1" id="Capa_1" xmlns="http://www.w3.org/2000/svg" xmlns:xlink="http://www.w3.org/1999/xlink" x="0px" y="0px"
	 viewBox="0 0 512 512" style="fill:#F6D808;" enable-background="new 0 0 512 512" xml:space="preserve">
<g>
	<g>
		<path d="M392.5,82.9c-31.5-3.6-77.3-5.4-136.2-5.4c-28.4,0-54.2,0.4-76.6,1.3c-4.1,0.2-7.4,3.6-7.2,7.8c0.2,4.1,3.6,7.4,7.8,7.2
			c22.2-0.9,47.8-1.3,76.1-1.3c72.6,0,113.3,2.9,134.5,5.3c6,0.7,10.5,5.7,10.5,11.7v43c0,6.5-5.3,11.8-11.8,11.8H123
			c-6.5,0-11.8-5.3-11.8-11.8v-43c0-6,4.5-11,10.5-11.7c8.4-1,18.1-1.8,29-2.5c4.1-0.3,7.3-3.8,7-8c-0.3-4.1-3.8-7.3-8-7
			c-11.1,0.7-21,1.6-29.7,2.6c-13.6,1.6-23.8,13-23.8,26.6v43c0,14.8,12,26.8,26.8,26.8h266.5c14.8,0,26.8-12,26.8-26.8v-43
			C416.2,95.9,406,84.5,392.5,82.9z"/>
	</g>
</g>
<g>
	<g>
		<path d="M447.1,386.2V252.3c13.5-3.4,22.7-15.1,23-29.3c0.3-14.5-8.7-26.8-22.4-30.5c-0.2-0.1-0.4-0.1-0.6-0.1
			c0,0,0-121.6,0-121.9C446.7,31.5,415,0,376,0H136.4c-39.2,0-71,31.9-71,71V192c-10.7,2.9-19.8,12.2-23.2,24.6
			c0,0.1-0.1,0.2-0.1,0.3c-2.4,11.2,2.3,25.2,12.6,31.1c3.6,2,7.1,3.4,10.6,4.4l0,133.8C52,389.5,42,401.7,42,416.2
			c0,17,13.9,30.9,30.9,30.9h13.4v32.4c0,17.9,14.6,32.5,32.5,32.5h14c17.9,0,32.5-14.6,32.5-32.5v-32.4h25.6V459
			c0,11.5,9.4,20.9,20.9,20.9h88.9c11.5,0,20.9-9.4,20.9-20.9v-11.9h25.5v32.4c0,17.9,14.6,32.5,32.5,32.5h14
			c17.9,0,32.5-14.6,32.5-32.5v-32.4h13.4c17,0,30.9-13.9,30.9-30.9C470.5,401.7,460.5,389.5,447.1,386.2z M442.7,206.7
			c7.6,1.4,12.5,8.4,12.4,15.9c-0.1,6.1-3.3,13.2-11.9,15.2c-0.9,0.2-2,0.5-2.9,0.4c-0.2,0-22.7,0-22.7,0l-1-7.8
			C429.8,220.1,438.6,211.2,442.7,206.7z M98.2,286.6c5.1,3.2,11.8,3.2,17-0.2l35.7-23.2c4.9,2.1,10,4.2,15.3,6.2l9.9,45.5
			c1.3,6.1,5.9,10.7,12,12c6,1.3,12.2-0.9,16-5.8l28.4-36.8c7.7,0.7,15.6,1.1,23.8,1.1c8.2,0,16.1-0.4,23.8-1.1
			c0,0,28.3,36.8,28.4,36.8c3.7,4.8,10,7.1,16,5.8c6.1-1.4,10.7-6,12-12l9.9-45.5c5.4-2,10.5-4,15.3-6.2c0,0,35.7,23.2,35.7,23.2
			c5.1,3.3,11.8,3.4,17,0.2c5.3-3.3,8.1-9.2,7.3-15.3l-2.2-18c0,0,12.5,0.1,12.7,0.1l0,131.9H80.4V254c4.2,0,8.5-0.3,12.7-0.6
			l-2.2,17.8C90.1,277.4,92.9,283.3,98.2,286.6z M105.8,273.1l4-32.6c2.1,1.4,4.2,2.8,6.4,4.2c4.3,2.7,8.7,5.3,13.1,7.8
			c1.9,1,3.8,2.1,5.8,3.1c0,0-28,18.2-28.1,18.3C106.4,274.2,105.7,273.8,105.8,273.1z M256.2,270.4c-35.3,0-65.7-7.4-90.2-17.1
			h180.5C321.9,262.9,291.6,270.4,256.2,270.4z M329.7,274.9l-8,36.8c0,0.2-0.1,0.5-0.6,0.6c-0.5,0.1-0.7-0.2-0.8-0.3l-23-29.8
			C308.7,280.3,319.6,277.8,329.7,274.9z M215.2,282.1c0,0-22.8,29.6-23,29.8c-0.4,0.5-1.3,0.3-1.4-0.3l-8-36.8
			C192.9,277.8,203.7,280.3,215.2,282.1z M377.4,255.6c6.5-3.4,12.7-7,18.8-10.9c2.2-1.4,4.4-2.8,6.4-4.2c0,0,4,32.4,4,32.6
			c0.1,0.7-0.7,1.1-1.2,0.8L377.4,255.6z M136.4,15H376c26.6,0,48.9,18.6,54.6,43.5c-4.8-1.4-9.8-2.4-14.8-3.3
			c-30.1-5.4-79.8-8.2-147.9-8.5c-6.9,0-25,0-27.1,0c-66.3,0.4-114.8,3.2-144.3,8.5c-6,1.1-10.9,2.2-14.8,3.3
			C87.5,33.6,109.8,15,136.4,15z M80.4,74.9c1.3-0.6,3.3-1.3,6.5-2.2c14.6-3.9,52.9-10.2,150.4-10.9c10.3-0.1,36.6,0,39.5,0
			c109.8,0.9,143.8,8.8,153.6,12.4c0.7,0.3,1.3,0.5,1.7,0.7v116.5h-54.7c-4.1,0-7.5,3.4-7.5,7.5s3.4,7.5,7.5,7.5h44.3
			c-4.4,4.1-18,14.8-18.5,15.3c-4.7,3.5-9.9,7.1-15.5,10.7c-3.1,1.9-6.3,3.9-9.8,5.9H134.6c-3.5-2-6.8-4-9.8-5.9
			c-14.8-9.4-26.2-18.8-34-26c0,0,255.2,0,255.3,0c4.1,0,7.5-3.5,7.5-7.5c0-4.1-3.4-7.5-7.5-7.5c-21-0.1-198.4-1.1-265.7-0.5
			L80.4,74.9L80.4,74.9z M62.5,235.2c-4.6-3.5-6.9-9.4-5.8-14.9c2-7.2,7-12.5,12.7-13.9c4,4.4,12.8,13.4,26.4,24l-1,7.8H72.9
			C69.6,238.2,65.3,237.2,62.5,235.2z M150.4,479.5L150.4,479.5c0,9.7-7.9,17.5-17.5,17.5h-14c-9.7,0-17.5-7.9-17.5-17.5v-32.4h49.1
			V479.5z M306.5,459c0,3.2-2.6,5.9-5.9,5.9h-88.9c-3.2,0-5.9-2.6-5.9-5.9v-27.7c0-3.2,2.7-5.9,5.9-5.9h88.9c3.2,0,5.9,2.7,5.9,5.9
			V459z M411.2,479.5L411.2,479.5c0,9.7-7.9,17.5-17.5,17.5h-14c-9.7,0-17.5-7.9-17.5-17.5v-32.4h49.1L411.2,479.5L411.2,479.5z
			 M439.6,432.1h-118v-0.8c0-11.3-9.6-20.9-20.9-20.9h-88.9c-11.5,0-20.9,9.4-20.9,20.9v0.8h-118c-8.8,0-15.9-7.1-15.9-15.9
			s7.1-15.9,15.9-15.9h366.7c8.8,0,15.9,7.1,15.9,15.9S448.3,432.1,439.6,432.1z"/>
	</g>
</g>
<g>
	<g>
		<path d="M138.2,295.8h-21.8c-8.5,0-15.4,6.9-15.4,15.4v46.6c0,8.5,6.9,15.4,15.4,15.4h21.8c8.5,0,15.4-6.9,15.4-15.4v-46.6
			C153.6,302.7,146.7,295.8,138.2,295.8z M138.6,357.8c0,0.2-0.2,0.4-0.4,0.4h-21.8c-0.2,0-0.4-0.2-0.4-0.4V342h22.6V357.8z
			 M138.6,327H116v-15.8c0-0.2,0.2-0.4,0.4-0.4h21.8c0.2,0,0.4,0.2,0.4,0.4V327z"/>
	</g>
</g>
<g>
	<g>
		<path d="M396,295.8h-21.8c-8.5,0-15.4,6.9-15.4,15.4v46.6c0,8.5,6.9,15.4,15.4,15.4H396c8.5,0,15.4-6.9,15.4-15.4v-46.6
			C411.4,302.7,404.5,295.8,396,295.8z M396.4,357.8c0,0.2-0.2,0.4-0.4,0.4h-21.8c-0.2,0-0.4-0.2-0.4-0.4V342h22.6L396.4,357.8
			L396.4,357.8z M396.4,327h-22.6v-15.8c0-0.2,0.2-0.4,0.4-0.4H396c0.2,0,0.4,0.2,0.4,0.4L396.4,327L396.4,327z"/>
	</g>
</g>
</svg>
