<?xml version="1.0" encoding="iso-8859-1"?>
<!-- Generator: Adobe Illustrator 19.0.0, SVG Export Plug-In . SVG Version: 6.00 Build 0)  -->
<svg version="1.1" id="Capa_1" xmlns="http://www.w3.org/2000/svg" xmlns:xlink="http://www.w3.org/1999/xlink" x="0px" y="0px"
	 viewBox="0 0 511.999 511.999" style="enable-background:new 0 0 511.999 511.999;fill:#F6D808;" xml:space="preserve">
<g>
	<g>
		<path d="M503.557,0h-157.54c0,0-0.003,0-0.004,0c-20.374,0.004-37.419,14.524-41.34,33.759H222.24
			c-4.661,0-8.439,3.778-8.439,8.439v9.29c-19.235,3.922-33.753,20.97-33.753,41.347c0,0,0.001,0.014,0.001,0.022v64.681H132.22
			c-4.661,0-8.439,3.778-8.439,8.439c0,32.816,24.561,59.984,56.263,64.134v39.952H70.33c-4.661,0-8.439,3.778-8.439,8.439
			c0,32.816,24.561,59.984,56.263,64.134v39.96H8.441c-4.661,0-8.439,3.778-8.439,8.439c0,32.816,24.561,59.984,56.263,64.134
			v39.951H42.198c-4.661,0-8.439,3.778-8.439,8.439s3.778,8.439,8.439,8.439h45.01c4.661,0,8.439-3.778,8.439-8.439
			c0-4.661-3.778-8.439-8.439-8.439H73.143v-39.95c25.365-3.321,46.152-21.372,53.45-45.27c7.299,23.897,28.088,41.949,53.451,45.27
			v39.951h-14.066c-4.661,0-8.439,3.778-8.439,8.439s3.778,8.439,8.439,8.439h45.01c4.661,0,8.439-3.778,8.439-8.439
			c0-4.661-3.778-8.439-8.439-8.439h-14.066V455.17c25.363-3.321,46.152-21.372,53.451-45.27
			c7.298,23.897,28.085,41.949,53.45,45.27v39.951h-14.066c-4.661,0-8.439,3.778-8.439,8.439s3.778,8.439,8.439,8.439h45.01
			c4.661,0,8.439-3.778,8.439-8.439c0-4.661-3.778-8.439-8.439-8.439h-14.066V455.17c31.702-4.151,56.263-31.318,56.263-64.134
			c0-4.661-3.778-8.439-8.439-8.439H258.811v-39.96c31.702-4.151,56.263-31.318,56.263-64.134c0-4.661-3.778-8.439-8.439-8.439
			H196.922v-39.952c31.702-4.151,56.263-31.318,56.263-64.134c0-4.661-3.778-8.439-8.439-8.439h-47.818V92.835
			c0-0.006-0.001-0.01-0.001-0.014c0.007-10.994,7.058-20.367,16.874-23.85v6.987c0,4.661,3.778,8.439,8.439,8.439h82.433
			c3.921,19.237,20.969,33.757,41.346,33.757h22.439c0.022,0,0.043,0.003,0.065,0.003c0.022,0,0.043-0.003,0.065-0.003h78.636
			c0.023,0,0.044,0.003,0.066,0.003c1.166,0,2.276-0.236,3.286-0.664c3.033-1.279,5.163-4.28,5.163-7.779
			c0-0.058-0.008-0.115-0.009-0.175v-92.66h39.388v84.395h-14.062c-4.661,0-8.439,3.778-8.439,8.439s3.778,8.439,8.439,8.439h22.502
			c4.661,0,8.439-3.778,8.439-8.439V8.439C511.997,3.778,508.219,0,503.557,0z M64.703,438.86c-23.49,0-43.063-17.027-47.063-39.384
			h94.126C107.766,421.832,88.193,438.86,64.703,438.86z M359.325,399.476c-4,22.357-23.573,39.384-47.063,39.384
			s-43.063-17.027-47.063-39.384H359.325z M126.592,326.326c-23.49,0-43.063-17.027-47.063-39.384h94.126
			C169.655,309.299,150.082,326.326,126.592,326.326z M188.483,438.86c-23.489,0-43.063-17.027-47.063-39.384h94.126
			C231.546,421.832,211.971,438.86,188.483,438.86z M297.435,286.942c-4,22.357-23.574,39.384-47.063,39.384
			c-23.489,0-43.063-17.027-47.063-39.384H297.435z M241.932,342.637v39.96h-106.9v-39.96c25.365-3.321,46.152-21.372,53.45-45.271
			C195.78,321.265,216.569,339.316,241.932,342.637z M235.545,174.417c-4,22.357-23.574,39.384-47.063,39.384
			c-23.489,0-43.063-17.027-47.063-39.384H235.545z M247.558,67.517h-16.879v-8.373c0-0.022,0.003-0.044,0.003-0.066
			c0-0.022-0.003-0.044-0.003-0.066v-8.375h16.879V67.517z M360.084,101.274h-14.065c-13.96,0-25.317-11.357-25.317-25.317
			c0-4.661-3.778-8.439-8.439-8.439h-47.826v-16.88h47.826c2.331,0,4.441-0.945,5.968-2.473c1.527-1.526,2.473-3.637,2.473-5.968
			c0-13.96,11.358-25.318,25.318-25.318h14.062V101.274z M438.851,101.274h-61.888V16.879h61.888V101.274z"/>
	</g>
</g>
<g>
</g>
<g>
</g>
<g>
</g>
<g>
</g>
<g>
</g>
<g>
</g>
<g>
</g>
<g>
</g>
<g>
</g>
<g>
</g>
<g>
</g>
<g>
</g>
<g>
</g>
<g>
</g>
<g>
</g>
</svg>
