<?xml version="1.0" encoding="iso-8859-1"?>
<!-- Generator: Adobe Illustrator 19.0.0, SVG Export Plug-In . SVG Version: 6.00 Build 0)  -->
<svg version="1.1" id="Capa_1" xmlns="http://www.w3.org/2000/svg" xmlns:xlink="http://www.w3.org/1999/xlink" x="0px" y="0px"
	 viewBox="0 0 512 512" style="enable-background:new 0 0 512 512;fill:#F6D808" xml:space="preserve">
<g>
	<g>
		<path d="M314.064,58.062c-4.372,0-7.917,3.545-7.917,7.917s3.545,7.917,7.917,7.917c65.486,0.001,118.762,53.277,118.762,118.762
			c0,4.373,3.545,7.917,7.917,7.917c4.372,0,7.917-3.545,7.917-7.917C448.659,118.442,388.28,58.062,314.064,58.062z"/>
	</g>
</g>
<g>
	<g>
		<path d="M512,192.658c0-4.373-3.545-7.917-7.917-7.917h-23.946c-0.38-7.999-1.335-15.985-2.851-23.835
			c-2.037-10.525-5.109-20.891-9.131-30.815c-8.371-20.628-20.659-39.144-36.526-54.999c-8.92-8.931-18.822-16.816-29.432-23.456
			c-10.324-6.471-21.377-11.792-32.873-15.825c-17.766-6.249-36.357-9.416-55.263-9.416h-0.032c-10.63,0-21.314,1.024-31.743,3.04
			c-10.525,2.047-20.891,5.12-30.804,9.142c-20.628,8.371-39.133,20.648-54.989,36.515c-2.956,2.966-5.838,6.06-8.54,9.215
			c-2.84,3.305-2.471,8.308,0.844,11.159c1.436,1.235,3.273,1.911,5.162,1.911c2.301,0,4.487-1.003,5.996-2.745c0,0,0,0,0.011-0.01
			c2.449-2.85,5.046-5.659,7.727-8.34c14.367-14.356,31.11-25.483,49.764-33.042c8.962-3.631,18.337-6.418,27.869-8.256
			c9.437-1.826,19.107-2.755,28.735-2.755c17.112,0,33.939,2.861,50.017,8.508c10.398,3.664,20.395,8.477,29.717,14.315
			c9.596,6.006,18.559,13.153,26.645,21.229c14.356,14.378,25.483,31.121,33.042,49.764c3.631,8.962,6.418,18.347,8.255,27.869
			c1.826,9.438,2.756,19.108,2.756,28.746c0,9.628-0.929,19.298-2.756,28.735c-1.837,9.533-4.624,18.907-8.255,27.87
			c-7.559,18.653-18.685,35.395-33.053,49.763c-14.367,14.368-31.11,25.483-49.753,33.052c-8.963,3.632-18.347,6.408-27.869,8.256
			c-9.438,1.827-19.107,2.756-28.745,2.756c-9.639,0-19.298-0.929-28.735-2.756c-9.532-1.847-18.907-4.624-27.869-8.266
			c-18.653-7.559-35.396-18.674-49.764-33.042c-14.283-14.283-25.367-30.846-32.936-49.205c-3.663-8.877-6.461-18.136-8.329-27.532
			c-1.847-9.332-2.787-18.875-2.787-28.365c0-26.349,6.619-52.17,19.15-74.688c2.122-3.811,0.75-8.646-3.061-10.768
			c-1.182-0.655-2.513-1.003-3.854-1.003c-2.871,0-5.521,1.563-6.914,4.075c-6.999,12.562-12.351,26.063-15.909,40.125
			c-2.737,10.788-4.395,21.878-4.987,33.072h-24.019c-4.373,0-7.917,3.544-7.917,7.917c0,106.489,84.533,193.591,190.018,197.763
			v79.346H197.936c-4.373,0-7.917,3.544-7.917,7.917s3.545,7.917,7.917,7.917H430.18c4.372,0,7.917-3.544,7.917-7.917
			s-3.545-7.917-7.917-7.917H321.982v-79.346C427.467,386.248,512,299.146,512,192.658z M314.066,374.756
			c-97.757,0-177.759-77.431-181.919-174.182h15.807c0.344,8.311,1.32,16.625,2.945,24.8c2.058,10.398,5.162,20.648,9.216,30.487
			c8.382,20.31,20.617,38.605,36.378,54.366c15.866,15.855,34.361,28.144,54.989,36.515c9.923,4.022,20.279,7.094,30.815,9.131
			c10.43,2.027,21.103,3.051,31.733,3.051h0.074c10.63,0,21.303-1.025,31.733-3.051c10.535-2.037,20.891-5.109,30.804-9.131
			c20.638-8.371,39.133-20.66,54.989-36.515c15.867-15.867,28.155-34.373,36.526-55.011c4.022-9.912,7.094-20.279,9.131-30.815
			c1.517-7.842,2.471-15.829,2.852-23.828h15.845C491.823,297.324,411.823,374.756,314.066,374.756z"/>
	</g>
</g>
<g>
	<g>
		<path d="M60.701,332.529h-2.64v-74.673c0.247-5.578-1.529-10.891-5.486-14.848c-3.538-3.538-8.446-5.486-13.82-5.486
			c-6.921,0-14.045,3.155-19.546,8.653c-4.587,4.588-7.575,10.347-8.414,16.219c-0.187,1.309-0.258,2.602-0.225,3.87
			c-0.004,0.097-0.014,0.192-0.014,0.289v65.976H7.917c-4.373,0-7.917,3.544-7.917,7.917v126.681c0,0.274,0.014,0.544,0.041,0.811
			c0.417,9.54,8.085,17.209,17.625,17.626c0.267,0.027,0.537,0.041,0.811,0.041h31.667c0.281,0,0.558-0.016,0.831-0.044
			c9.526-0.427,17.181-8.085,17.601-17.613c0.027-0.27,0.042-0.543,0.042-0.821V340.446
			C68.619,336.073,65.074,332.529,60.701,332.529z M30.406,257.372c2.962-2.961,6.255-4.016,8.349-4.016
			c0.809,0,1.922,0.147,2.623,0.848c1.591,1.591,1.148,6.656-3.167,10.971c-2.961,2.961-6.254,4.016-8.348,4.016
			c-0.81,0-1.922-0.147-2.623-0.848C25.649,266.753,26.091,261.688,30.406,257.372z M26.391,284.732
			c1.13,0.186,2.287,0.296,3.472,0.296c4.182,0,8.436-1.159,12.363-3.283v19.116H26.391V284.732z M26.391,316.695h15.835v15.835
			H26.391V316.695z M52.784,467.109c0,0.007-0.001,0.013-0.001,0.021c0,1.456-1.184,2.639-2.639,2.639
			c-0.014,0-0.027,0.002-0.041,0.002H18.477v-0.001c-1.457,0-2.642-1.186-2.642-2.643V348.365h36.949V467.109z"/>
	</g>
</g>
<g>
	<g>
		<path d="M163.588,434.638c-0.422-9.526-8.077-17.185-17.604-17.609c-0.273-0.029-0.55-0.044-0.83-0.044H92.375
			c-4.373,0-7.917,3.544-7.917,7.917v52.785c0,4.373,3.545,7.917,7.917,7.917h52.779c0.274,0,0.544-0.014,0.811-0.041
			c9.54-0.416,17.208-8.085,17.625-17.626c0.027-0.267,0.041-0.537,0.041-0.811v-31.666
			C163.631,435.182,163.616,434.907,163.588,434.638z M147.795,467.125c0,1.458-1.186,2.643-2.642,2.643h-44.861v-36.95h44.822
			c0.013,0,0.027,0.002,0.041,0.002c1.455,0,2.639,1.184,2.639,2.639c0,0.007,0.001,0.013,0.001,0.021V467.125z"/>
	</g>
</g>
<g>
</g>
<g>
</g>
<g>
</g>
<g>
</g>
<g>
</g>
<g>
</g>
<g>
</g>
<g>
</g>
<g>
</g>
<g>
</g>
<g>
</g>
<g>
</g>
<g>
</g>
<g>
</g>
<g>
</g>
</svg>
