<?xml version="1.0" encoding="utf-8"?>
<!-- Generator: Adobe Illustrator 22.1.0, SVG Export Plug-In . SVG Version: 6.00 Build 0)  -->
<svg version="1.1" id="Capa_1" xmlns="http://www.w3.org/2000/svg" xmlns:xlink="http://www.w3.org/1999/xlink" x="0px" y="0px"
	 viewBox="0 0 512 512" style="fill:#F6D808" enable-background="new 0 0 512 512" xml:space="preserve">
<g>
	<g>
		<path d="M445.5,450.7H77.8c-4.9,0-8.8-4-8.8-8.8v-3.7l9,1.1c1.8,0.2,3.7,0.3,5.5,0.3c12,0,23.4-4.7,32.1-13.3l3-3l2.7,2.7
			c1.5,1.5,3.4,2.2,5.3,2.2c1.8,0,3.6-0.6,5-1.9l61.1-54.2c3.1-2.7,3.4-7.5,0.6-10.6c-2.7-3.1-7.5-3.4-10.6-0.6l-55.8,49.6
			l-50.2-50.2l82.5-92.9c2.7-3.1,2.5-7.8-0.6-10.6c-3.1-2.7-7.8-2.5-10.6,0.6l-87.2,98.2c-2.6,3-2.5,7.5,0.3,10.3l2.7,2.7
			l-32.5,32.5c-5.5,5.5-7.3,13.4-4.8,20.8c2.5,7.3,8.9,12.4,16.6,13.4l11,1.3v5.5c0,13.1,10.7,23.8,23.8,23.8h367.7
			c4.9,0,8.8,4,8.8,8.8s-4,8.8-8.8,8.8H185.9c-3-8-10.7-13.7-19.8-13.7h-38.3c-9,0-16.7,5.7-19.8,13.7H51.2c-4.1,0-7.5,3.4-7.5,7.5
			s3.4,7.5,7.5,7.5h56.9c3,8,10.7,13.7,19.8,13.7h38.3c9,0,16.7-5.7,19.8-13.7h259.6c13.1,0,23.8-10.7,23.8-23.8
			S458.6,450.7,445.5,450.7z M44.7,420.1c-2.8-0.3-3.9-2.5-4.2-3.4c-0.3-0.9-0.8-3.2,1.2-5.3L74.2,379l33.6,33.6l-3,3
			c-6.6,6.6-15.8,9.8-25.1,8.7L44.7,420.1z M166.1,497h-38.3c-3.4,0-6.2-2.8-6.2-6.2s2.8-6.2,6.2-6.2h38.3c3.4,0,6.2,2.8,6.2,6.2
			C172.3,494.2,169.5,497,166.1,497z"/>
	</g>
</g>
<g>
	<g>
		<path d="M456.7,30.1C440.1,13.5,418.1,3,394.8,0.6c-23-2.4-46.3,3-65.7,15.3c-3.5,2.2-4.5,6.8-2.3,10.3c2.2,3.5,6.8,4.5,10.3,2.3
			c16.6-10.5,36.5-15.1,56.1-13.1c19.9,2.1,38.7,11,52.9,25.2c34.2,34.2,34.2,90,0,124.2c-11.1,11.1-24.9,19-40,22.9L299,80.7
			c2.9-11.2,7.9-21.6,14.9-30.8c2.5-3.3,1.9-8-1.5-10.5c-3.3-2.5-8-1.8-10.5,1.5c-7.3,9.6-12.7,20.2-16.2,31.7
			c-1.9-0.5-3.9-0.7-5.9-0.7c-6.6,0-12.8,2.6-17.5,7.2c-9.6,9.6-9.6,25.3,0,35l6.6,6.6l-98.4,110.9c-2.8,3.1-2.5,7.8,0.6,10.6
			c1.4,1.3,3.2,1.9,5,1.9c2.1,0,4.1-0.9,5.6-2.5l97.8-110.3l76,76L208.2,338c-3.1,2.7-3.4,7.5-0.6,10.6c1.5,1.7,3.5,2.5,5.6,2.5
			c1.8,0,3.5-0.6,5-1.9l148-131.3l6.6,6.6c4.8,4.8,11.2,7.2,17.5,7.2c6.3,0,12.7-2.4,17.5-7.2c4.7-4.7,7.3-10.9,7.3-17.5
			c0-2-0.2-4-0.7-5.9c15.9-4.9,30.5-13.7,42.4-25.6C496.8,135.4,496.8,70.2,456.7,30.1z M397.2,213.9c-3.8,3.8-10,3.8-13.8,0
			L272.9,103.4c-3.8-3.8-3.8-10,0-13.8c1.8-1.8,4.3-2.9,6.9-2.9s5.1,1,6.9,2.9l110.4,110.4c1.8,1.8,2.9,4.3,2.9,6.9
			S399,212,397.2,213.9z"/>
	</g>
</g>
<g>
	<g>
		<path d="M308,178.9c-8.7-8.7-22.7-8.7-31.4,0l-16.9,16.9c-8.7,8.7-8.7,22.7,0,31.4c4.3,4.3,10,6.5,15.7,6.5
			c5.7,0,11.4-2.2,15.7-6.5l16.9-16.9C316.6,201.6,316.6,187.5,308,178.9z M280.4,216.6c-2.8,2.8-7.4,2.8-10.2,0
			c-2.8-2.8-2.8-7.4,0-10.2l3.2-3.2l10.2,10.2L280.4,216.6z M297.3,199.6l-3.2,3.2L284,192.6l3.2-3.2c2.8-2.8,7.4-2.8,10.2,0
			C300.1,192.3,300.1,196.8,297.3,199.6z"/>
	</g>
</g>
<g>
	<g>
		<path d="M253.3,233.5c-3.9-3.9-9.2-6.1-14.7-6.1c-5.6,0-10.8,2.2-14.7,6.1c-3.9,3.9-6.1,9.2-6.1,14.7c0,5.6,2.2,10.8,6.1,14.7
			c3.9,3.9,9.2,6.1,14.7,6.1c5.6,0,10.8-2.2,14.7-6.1c3.9-3.9,6.1-9.2,6.1-14.7S257.3,237.4,253.3,233.5z M242.7,252.3
			c-1.1,1.1-2.6,1.7-4.1,1.7s-3-0.6-4.1-1.7c-1.1-1.1-1.7-2.6-1.7-4.1c0-1.6,0.6-3,1.7-4.1h0c1.1-1.1,2.6-1.7,4.1-1.7s3,0.6,4.1,1.7
			c1.1,1.1,1.7,2.6,1.7,4.1C244.4,249.8,243.8,251.2,242.7,252.3z"/>
	</g>
</g>
</svg>
