<?xml version="1.0" encoding="iso-8859-1"?>
<!-- Generator: Adobe Illustrator 19.0.0, SVG Export Plug-In . SVG Version: 6.00 Build 0)  -->
<svg version="1.1" id="Capa_1" xmlns="http://www.w3.org/2000/svg" xmlns:xlink="http://www.w3.org/1999/xlink" x="0px" y="0px"
	 viewBox="0 0 512 512" style="enable-background:new 0 0 512 512;fill:#F6D808" xml:space="preserve">
<g>
	<g>
		<path d="M294.781,173.063c-0.004-0.16-0.01-0.319-0.024-0.48c-0.011-0.123-0.027-0.244-0.043-0.366
			c-0.018-0.126-0.034-0.252-0.058-0.378c-0.028-0.153-0.064-0.303-0.102-0.454c-0.017-0.067-0.027-0.135-0.045-0.203
			c-0.009-0.03-0.021-0.058-0.029-0.088c-0.047-0.16-0.101-0.315-0.157-0.47c-0.033-0.091-0.064-0.183-0.1-0.272
			c-0.056-0.138-0.119-0.272-0.183-0.407c-0.048-0.102-0.094-0.205-0.146-0.305c-0.059-0.111-0.123-0.217-0.187-0.324
			c-0.067-0.114-0.133-0.229-0.206-0.339c-0.059-0.089-0.123-0.173-0.185-0.259c-0.086-0.119-0.17-0.238-0.262-0.351
			c-0.064-0.079-0.134-0.153-0.201-0.23c-0.097-0.109-0.192-0.22-0.294-0.323c-0.082-0.083-0.169-0.16-0.255-0.238
			c-0.094-0.087-0.186-0.176-0.284-0.258c-0.111-0.094-0.228-0.178-0.343-0.265c-0.079-0.059-0.156-0.121-0.236-0.177
			c-0.142-0.098-0.291-0.188-0.439-0.277c-0.061-0.036-0.12-0.076-0.182-0.111c-0.162-0.091-0.33-0.172-0.499-0.252
			c-0.055-0.026-0.109-0.055-0.165-0.08c-0.165-0.073-0.335-0.136-0.507-0.197c-0.067-0.024-0.132-0.051-0.2-0.073
			c-0.153-0.05-0.31-0.091-0.467-0.131c-0.092-0.024-0.184-0.051-0.278-0.072c-0.133-0.029-0.268-0.051-0.403-0.073
			c-0.124-0.02-0.246-0.042-0.371-0.057c-0.114-0.013-0.23-0.02-0.346-0.028c-0.147-0.011-0.294-0.02-0.442-0.022
			c-0.036-0.001-0.07-0.005-0.106-0.005c-0.078,0-0.155,0.01-0.232,0.012c-0.143,0.005-0.287,0.01-0.431,0.022
			c-0.135,0.012-0.267,0.03-0.4,0.048c-0.117,0.016-0.233,0.032-0.351,0.053c-0.157,0.029-0.311,0.065-0.464,0.104
			c-0.066,0.017-0.132,0.026-0.198,0.044L98.772,217.505c-0.03,0.009-0.058,0.021-0.088,0.029c-0.16,0.046-0.315,0.101-0.47,0.157
			c-0.091,0.033-0.183,0.064-0.272,0.1c-0.137,0.056-0.271,0.119-0.405,0.182c-0.103,0.048-0.207,0.095-0.307,0.147
			c-0.108,0.058-0.212,0.121-0.317,0.183c-0.117,0.069-0.235,0.137-0.347,0.211c-0.083,0.056-0.163,0.116-0.244,0.175
			c-0.124,0.089-0.248,0.178-0.366,0.274c-0.071,0.058-0.137,0.12-0.206,0.18c-0.118,0.104-0.237,0.207-0.348,0.317
			c-0.071,0.07-0.136,0.145-0.204,0.218c-0.099,0.107-0.2,0.212-0.294,0.323c-0.078,0.093-0.149,0.192-0.223,0.288
			c-0.074,0.098-0.151,0.193-0.22,0.294c-0.082,0.119-0.155,0.243-0.231,0.367c-0.052,0.086-0.108,0.17-0.157,0.258
			c-0.076,0.136-0.142,0.276-0.21,0.417c-0.04,0.083-0.083,0.165-0.121,0.25c-0.06,0.137-0.111,0.279-0.163,0.42
			c-0.036,0.097-0.074,0.191-0.106,0.289c-0.04,0.125-0.073,0.254-0.108,0.382c-0.033,0.121-0.067,0.241-0.094,0.364
			c-0.023,0.107-0.039,0.216-0.058,0.324c-0.026,0.149-0.052,0.299-0.069,0.45c-0.011,0.092-0.015,0.185-0.022,0.277
			c-0.013,0.169-0.024,0.338-0.026,0.509c-0.001,0.03-0.005,0.058-0.005,0.088v161.304c-5.721-3.854-12.455-5.927-19.508-5.927
			c-6.959,0-13.608,2.016-19.28,5.771c-5.672-3.755-12.321-5.771-19.279-5.771c-9.356,0-18.151,3.643-24.766,10.259
			S0,406.025,0,415.38c-0.001,9.356,3.643,18.15,10.258,24.765l38.56,38.56c1.454,1.455,3.428,2.272,5.485,2.272
			c2.058,0,4.031-0.817,5.485-2.272l38.558-38.559c6.606-6.604,10.247-15.382,10.259-24.721c0-0.004,0.001-0.008,0.001-0.012v-0.013
			c0-0.007,0.001-0.014,0.001-0.021c0-0.006-0.001-0.013-0.001-0.02V282.591l180.5-50.145c0.028-0.008,0.054-0.019,0.082-0.027
			c0.166-0.048,0.328-0.104,0.489-0.163c0.085-0.031,0.172-0.06,0.256-0.093c0.143-0.058,0.281-0.123,0.42-0.189
			c0.098-0.047,0.198-0.091,0.293-0.141c0.113-0.06,0.22-0.125,0.329-0.19c0.114-0.067,0.228-0.132,0.336-0.204
			c0.087-0.058,0.169-0.12,0.254-0.181c0.121-0.087,0.242-0.174,0.358-0.268c0.074-0.06,0.142-0.124,0.213-0.187
			c0.116-0.101,0.232-0.203,0.342-0.31c0.072-0.072,0.139-0.148,0.209-0.222c0.098-0.106,0.198-0.209,0.29-0.319
			c0.079-0.094,0.15-0.193,0.225-0.291c0.074-0.097,0.149-0.192,0.219-0.292c0.082-0.12,0.156-0.245,0.232-0.369
			c0.051-0.085,0.107-0.169,0.155-0.256c0.076-0.136,0.143-0.277,0.211-0.418c0.04-0.083,0.083-0.165,0.121-0.249
			c0.06-0.137,0.111-0.279,0.163-0.42c0.036-0.097,0.074-0.191,0.106-0.289c0.04-0.125,0.073-0.254,0.108-0.382
			c0.033-0.121,0.067-0.241,0.094-0.364c0.023-0.107,0.039-0.216,0.058-0.324c0.026-0.149,0.051-0.299,0.069-0.45
			c0.011-0.092,0.015-0.185,0.022-0.277c0.013-0.169,0.024-0.338,0.026-0.509c0.001-0.03,0.005-0.058,0.005-0.088V173.26
			C294.791,173.195,294.783,173.13,294.781,173.063z M93.091,415.39c-0.002,5.207-2.032,10.102-5.715,13.784l-33.073,33.075
			l-33.074-33.075c-3.685-3.684-5.714-8.583-5.714-13.793c0-5.211,2.029-10.11,5.714-13.794c3.685-3.685,8.584-5.715,13.795-5.715
			s10.109,2.029,13.792,5.714c1.455,1.455,3.428,2.273,5.486,2.273h0.001c2.058,0,4.031-0.817,5.486-2.272
			c3.685-3.685,8.584-5.715,13.794-5.715s10.109,2.029,13.794,5.716c3.682,3.681,5.712,8.575,5.714,13.782V415.39z M279.272,219.076
			L108.606,266.49v-35.613l170.666-47.411V219.076z"/>
	</g>
</g>
<g>
	<g>
		<path d="M287.029,248.248c-4.285,0-7.758,3.473-7.758,7.758v99.246c-5.722-3.855-12.455-5.927-19.508-5.927
			c-6.959,0-13.608,2.016-19.28,5.771c-5.672-3.756-12.321-5.771-19.28-5.771c-9.356,0-18.151,3.643-24.765,10.259
			c-6.615,6.614-10.259,15.409-10.259,24.764c-0.001,9.356,3.643,18.15,10.258,24.765l38.56,38.561
			c1.455,1.455,3.428,2.272,5.485,2.272c2.058,0,4.031-0.817,5.485-2.272l38.558-38.56c6.605-6.604,10.247-15.381,10.259-24.719
			c0-0.004,0.001-0.008,0.001-0.012v-0.013c0-0.007,0.001-0.014,0.001-0.021c0.002-0.009,0.001-0.015,0.001-0.023v-128.32
			C294.787,251.722,291.314,248.248,287.029,248.248z M279.272,384.358c-0.002,5.207-2.032,10.101-5.715,13.783l-33.073,33.075
			l-33.074-33.075c-3.685-3.684-5.714-8.583-5.714-13.794s2.029-10.109,5.714-13.793c3.684-3.685,8.583-5.714,13.794-5.714
			c5.211,0,10.11,2.029,13.794,5.714c1.455,1.455,3.428,2.273,5.486,2.273s4.031-0.818,5.486-2.273
			c3.684-3.685,8.583-5.714,13.794-5.714s10.109,2.029,13.794,5.716c3.682,3.681,5.711,8.575,5.714,13.781V384.358z"/>
	</g>
</g>
<g>
	<g>
		<path d="M476.062,84.237c-14.595-10.9-26.124-19.509-26.124-45.456c0-4.284-3.473-7.758-7.758-7.758
			c-4.284,0-7.758,3.473-7.758,7.758v181.993c-5.721-3.854-12.455-5.927-19.508-5.927c-6.959,0-13.608,2.015-19.28,5.771
			c-5.672-3.756-12.321-5.771-19.279-5.771c-9.356,0-18.152,3.643-24.765,10.258c-6.616,6.614-10.259,15.409-10.259,24.765
			c0,9.355,3.643,18.15,10.259,24.765l38.56,38.561c1.455,1.455,3.428,2.272,5.485,2.272c2.058,0,4.031-0.818,5.486-2.272
			l38.557-38.56c6.601-6.6,10.242-15.37,10.259-24.701c0-0.011,0.001-0.021,0.001-0.031V82.332
			c5.228,5.663,11.175,10.105,16.84,14.335c15.94,11.904,29.706,22.184,29.706,55.89c0,4.284,3.473,7.758,7.758,7.758
			c4.285,0,7.758-3.473,7.758-7.758C512,111.074,492.907,96.816,476.062,84.237z M428.707,263.663l-33.072,33.075l-33.074-33.075
			c-3.685-3.684-5.714-8.583-5.714-13.793c0-5.21,2.029-10.109,5.715-13.794c3.684-3.685,8.583-5.714,13.794-5.714
			s10.109,2.029,13.793,5.714c1.455,1.455,3.428,2.273,5.486,2.273c2.058,0,4.031-0.818,5.486-2.273
			c3.684-3.685,8.583-5.714,13.794-5.714s10.108,2.029,13.793,5.716c3.685,3.683,5.715,8.581,5.715,13.791
			C434.423,255.079,432.393,259.978,428.707,263.663z"/>
	</g>
</g>
<g>
</g>
<g>
</g>
<g>
</g>
<g>
</g>
<g>
</g>
<g>
</g>
<g>
</g>
<g>
</g>
<g>
</g>
<g>
</g>
<g>
</g>
<g>
</g>
<g>
</g>
<g>
</g>
<g>
</g>
</svg>
