<?xml version="1.0" encoding="iso-8859-1"?>
<!-- Generator: Adobe Illustrator 19.0.0, SVG Export Plug-In . SVG Version: 6.00 Build 0)  -->
<svg version="1.1" id="Capa_1" xmlns="http://www.w3.org/2000/svg" xmlns:xlink="http://www.w3.org/1999/xlink" x="0px" y="0px"
	 viewBox="0 0 512.004 512.004" style="enable-background:new 0 0 512.004 512.004;fill:#F6D808" xml:space="preserve">
<g>
	<g>
		<path d="M356.982,65.477c-5.35-5.354-12.466-8.302-20.036-8.302c-5.256,0-10.291,1.42-14.669,4.08
			c-4.38-2.66-9.418-4.08-14.672-4.08c-7.571,0-14.687,2.949-20.036,8.3c-11.047,11.047-11.047,29.023,0,40.073l29.345,29.34
			c1.423,1.423,3.354,2.222,5.366,2.222c2.013,0,3.943-0.8,5.366-2.223l29.335-29.34C368.026,94.498,368.025,76.522,356.982,65.477z
			 M346.247,94.816l-23.968,23.973l-23.977-23.973c-5.13-5.131-5.13-13.478,0.001-18.61c2.484-2.485,5.788-3.854,9.302-3.854
			c3.516,0,6.822,1.37,9.309,3.856c1.423,1.423,3.353,2.222,5.366,2.222c0.001,0,0.002,0,0.003,0
			c2.013-0.001,3.944-0.801,5.367-2.226c2.481-2.484,5.783-3.852,9.296-3.852c3.514,0,6.817,1.369,9.302,3.855
			C351.376,81.337,351.376,89.686,346.247,94.816z"/>
	</g>
</g>
<g>
	<g>
		<path d="M164.73,65.477c-5.35-5.354-12.466-8.302-20.036-8.302c-5.255,0-10.291,1.42-14.668,4.08
			c-4.38-2.66-9.418-4.08-14.672-4.08c-7.571,0-14.687,2.949-20.036,8.3c-11.047,11.047-11.047,29.023,0.001,40.073l29.345,29.34
			c1.421,1.423,3.351,2.222,5.364,2.222s3.943-0.8,5.366-2.223l29.335-29.34C175.774,94.498,175.773,76.522,164.73,65.477z
			 M153.995,94.816l-23.968,23.973L106.05,94.816c-5.131-5.131-5.131-13.478,0-18.61c2.484-2.485,5.788-3.854,9.302-3.854
			c3.516,0,6.822,1.37,9.309,3.856c1.423,1.423,3.353,2.222,5.366,2.222c0.001,0,0.002,0,0.003,0
			c2.013-0.001,3.944-0.801,5.367-2.226c2.481-2.484,5.783-3.852,9.296-3.852c3.514,0,6.817,1.369,9.302,3.855
			C159.124,81.337,159.124,89.685,153.995,94.816z"/>
	</g>
</g>
<g>
	<g>
		<path d="M512,377.275V205.564c0-0.008,0-0.016,0-0.024v-0.129c0-0.062-0.008-0.123-0.009-0.185
			c-0.004-0.173-0.01-0.346-0.026-0.52c-0.01-0.107-0.027-0.211-0.041-0.317c-0.019-0.137-0.037-0.274-0.063-0.411
			c-0.028-0.143-0.063-0.283-0.099-0.423c-0.025-0.097-0.046-0.195-0.075-0.292c-0.052-0.175-0.113-0.345-0.176-0.514
			c-0.02-0.052-0.033-0.105-0.054-0.157c-0.005-0.014-0.012-0.026-0.018-0.039c-0.071-0.173-0.151-0.341-0.234-0.508
			c-0.031-0.063-0.059-0.129-0.092-0.192c-0.073-0.137-0.155-0.269-0.236-0.401c-0.052-0.085-0.101-0.174-0.156-0.256
			c-0.06-0.09-0.126-0.173-0.19-0.259c-0.085-0.117-0.167-0.235-0.258-0.346c-0.034-0.04-0.071-0.077-0.105-0.118
			c-0.126-0.146-0.253-0.293-0.389-0.428c-0.016-0.016-0.034-0.029-0.049-0.044c-0.157-0.154-0.317-0.303-0.486-0.442
			c-0.08-0.066-0.165-0.124-0.247-0.186c-0.109-0.082-0.215-0.169-0.328-0.245c-0.589-0.4-1.239-0.717-1.932-0.941
			c-0.007-0.002-0.014-0.005-0.021-0.007c-0.165-0.053-0.334-0.094-0.503-0.135c-0.075-0.019-0.148-0.041-0.224-0.057
			c-0.118-0.025-0.24-0.04-0.36-0.06c-0.132-0.022-0.263-0.046-0.397-0.06c-0.086-0.009-0.173-0.012-0.259-0.018
			c-0.17-0.013-0.34-0.025-0.512-0.027c-0.017,0-0.034-0.002-0.051-0.002c-0.066,0-0.129,0.008-0.194,0.01
			c-0.169,0.004-0.339,0.01-0.509,0.026c-0.108,0.01-0.214,0.027-0.32,0.041c-0.137,0.019-0.273,0.036-0.41,0.062
			c-0.141,0.027-0.278,0.062-0.416,0.097c-0.101,0.026-0.202,0.048-0.302,0.078c-0.167,0.049-0.33,0.108-0.493,0.168
			c-0.058,0.022-0.118,0.038-0.175,0.06l-0.121,0.048c-0.007,0.003-0.014,0.006-0.021,0.008l-99.69,39.875h-31.424v-43.006
			c0-4.192-3.398-7.589-7.589-7.589h-32.885v-5.38c9.807-0.827,19.317-3.262,28.344-7.276c10.968-4.877,20.672-11.809,28.858-20.602
			c1.386-1.487,2.105-3.41,2.034-5.444c-0.071-2.024-0.931-3.896-2.409-5.282c-1.417-1.316-3.248-2.035-5.171-2.035
			c-2.105,0-4.128,0.88-5.555,2.408c-6.81,7.306-14.865,13.053-23.921,17.081c-8.92,3.974-18.421,6.057-28.25,6.255
			c-0.492-0.1-1-0.153-1.521-0.153c-0.529,0-1.045,0.054-1.543,0.157c-8.506-0.172-16.813-1.775-24.702-4.802
			c-8.085-3.096-15.492-7.568-22.039-13.295c-13.235-11.586-21.876-27.482-24.335-44.786c-0.496-3.43-0.739-6.941-0.739-10.442
			c0-9.916,1.943-19.519,5.757-28.554c3.693-8.722,8.985-16.564,15.724-23.324c6.749-6.739,14.601-12.031,23.323-15.724
			c9.036-3.814,18.638-5.757,28.555-5.757c9.916,0,19.519,1.943,28.554,5.757c8.722,3.694,16.564,8.985,23.313,15.724
			c6.749,6.76,12.041,14.602,15.724,23.324c3.825,9.036,5.768,18.638,5.768,28.554c0,9.279-1.71,18.324-5.08,26.865
			c-0.739,1.892-0.698,3.957,0.101,5.808c0.81,1.862,2.297,3.298,4.179,4.038c0.9,0.354,1.831,0.526,2.783,0.526
			c3.137,0,5.909-1.882,7.063-4.806c4.068-10.331,6.132-21.249,6.132-32.43c0-11.951-2.348-23.546-6.962-34.464
			c-4.462-10.544-10.847-20.014-18.972-28.139c-8.135-8.135-17.596-14.52-28.139-18.972c-10.918-4.624-22.514-6.961-34.464-6.961
			c-11.95,0-23.546,2.337-34.464,6.961c-10.543,4.453-20.015,10.837-28.14,18.972c-8.135,8.126-14.52,17.596-18.972,28.139
			c-4.624,10.918-6.961,22.514-6.961,34.464c0,0.843,0.021,1.687,0.044,2.53h-15.284c0.024-0.843,0.062-1.683,0.062-2.53
			c0-1.062-0.02-2.115-0.061-3.147c-0.405-11.616-3.026-22.838-7.801-33.361c-4.614-10.19-11.049-19.316-19.125-27.128
			c-8.085-7.821-17.424-13.954-27.775-18.233c-10.715-4.422-22.079-6.668-33.786-6.668c-10.837,0-21.421,1.943-31.469,5.768
			c-9.724,3.693-18.638,9.026-26.5,15.856c-3.167,2.742-3.501,7.538-0.759,10.706c1.437,1.659,3.532,2.621,5.737,2.621
			c1.822,0,3.582-0.668,4.968-1.862c0,0,0,0,0-0.011c6.547-5.656,13.923-10.078,21.947-13.133c8.318-3.157,17.09-4.766,26.086-4.766
			h0.02c19.124,0,37.236,7.326,50.987,20.641c6.689,6.466,12.021,14.035,15.846,22.473c3.946,8.712,6.122,18.012,6.456,27.625
			c0.031,0.86,0.051,1.74,0.051,2.621c0,9.916-1.943,19.519-5.768,28.554c-3.683,8.722-8.975,16.564-15.724,23.313
			c-6.749,6.749-14.591,12.042-23.313,15.724c-8.57,3.628-17.654,5.541-27.027,5.73c-0.494-0.101-1.005-0.154-1.53-0.154
			c-0.524,0-1.035,0.053-1.529,0.154c-9.373-0.191-18.454-2.103-27.023-5.73c-8.722-3.683-16.564-8.975-23.323-15.724
			c-6.739-6.749-12.031-14.591-15.724-23.313c-3.815-9.036-5.757-18.638-5.757-28.554c0-6.031,0.728-12.021,2.175-17.798
			c1.396-5.617,3.47-11.07,6.162-16.211c1.943-3.703,0.506-8.297-3.198-10.24c-1.082-0.566-2.296-0.869-3.521-0.869
			c-2.833,0-5.413,1.558-6.729,4.067c-3.248,6.203-5.757,12.789-7.447,19.58c-1.741,6.991-2.621,14.216-2.621,21.471
			c0,11.95,2.337,23.545,6.961,34.463c4.452,10.543,10.837,20.015,18.972,28.14c8.125,8.135,17.596,14.51,28.14,18.972
			c8.589,3.629,17.602,5.834,26.873,6.62v5.399h-32.88c-4.191,0-7.589,3.397-7.589,7.589c0,0.017,0.002,0.033,0.002,0.049v73.312
			H40.156l-30.24-9.755c-0.01-0.003-0.02-0.004-0.029-0.007c-0.329-0.104-0.668-0.181-1.014-0.24
			c-0.077-0.013-0.154-0.024-0.231-0.035c-0.345-0.047-0.695-0.081-1.053-0.081c-0.369,0-0.729,0.036-1.084,0.086
			c-0.082,0.012-0.163,0.023-0.243,0.038c-0.339,0.06-0.671,0.137-0.993,0.241c-0.071,0.023-0.138,0.051-0.208,0.076
			c-0.265,0.094-0.522,0.202-0.772,0.323c-0.084,0.04-0.17,0.078-0.253,0.122c-0.276,0.146-0.541,0.311-0.795,0.49
			c-0.093,0.065-0.183,0.134-0.273,0.203c-0.216,0.167-0.423,0.342-0.62,0.531c-0.07,0.067-0.14,0.133-0.208,0.204
			c-0.206,0.211-0.396,0.439-0.577,0.674c-0.056,0.074-0.113,0.147-0.167,0.223c-0.196,0.277-0.374,0.565-0.533,0.867
			c-0.027,0.052-0.05,0.107-0.077,0.159c-0.153,0.309-0.287,0.627-0.397,0.959c-0.007,0.023-0.02,0.043-0.027,0.066
			c-0.004,0.011-0.005,0.022-0.008,0.033c-0.041,0.128-0.071,0.259-0.105,0.389c-0.032,0.122-0.068,0.242-0.093,0.364
			c-0.01,0.048-0.015,0.099-0.024,0.148C0.046,265.193,0,265.658,0,266.118c0,0.001,0,0.003,0,0.003v50.594c0,0.001,0,0.001,0,0.001
			c0,0.451,0.045,0.903,0.128,1.357c0.011,0.061,0.018,0.125,0.03,0.187c0.024,0.114,0.059,0.227,0.088,0.341
			c0.035,0.136,0.067,0.275,0.109,0.408c0.003,0.011,0.005,0.023,0.009,0.034c0.008,0.026,0.022,0.047,0.03,0.073
			c0.105,0.314,0.232,0.618,0.376,0.912c0.036,0.074,0.069,0.149,0.107,0.222c0.149,0.282,0.315,0.551,0.497,0.81
			c0.072,0.103,0.147,0.2,0.223,0.298c0.147,0.19,0.302,0.372,0.466,0.545c0.116,0.124,0.236,0.242,0.359,0.357
			c0.165,0.154,0.335,0.3,0.512,0.439c0.107,0.083,0.214,0.166,0.326,0.243c0.245,0.171,0.498,0.328,0.762,0.469
			c0.093,0.049,0.19,0.092,0.285,0.137c0.24,0.116,0.487,0.219,0.74,0.309c0.076,0.027,0.149,0.058,0.225,0.082
			c0.32,0.103,0.65,0.18,0.987,0.24c0.082,0.014,0.164,0.026,0.246,0.038c0.355,0.05,0.715,0.086,1.084,0.086
			c0.359,0,0.709-0.034,1.054-0.082c0.076-0.011,0.152-0.022,0.228-0.035c0.349-0.059,0.692-0.137,1.023-0.243
			c0.007-0.002,0.015-0.003,0.022-0.005l30.237-9.754H81.96v73.31c0,0.017-0.002,0.033-0.002,0.049c0,4.192,3.398,7.589,7.589,7.589
			h25.82c-1.947,3.798-3.053,8.095-3.053,12.648c0,15.343,12.483,27.826,27.826,27.826h1.368l-8.882,62.168
			c-0.592,4.149,2.29,7.993,6.44,8.586c0.364,0.051,0.725,0.077,1.083,0.077c3.715,0,6.962-2.731,7.503-6.517l9.189-64.314h15.023
			l-8.882,62.168c-0.592,4.149,2.29,7.993,6.44,8.586c0.364,0.051,0.725,0.077,1.083,0.077c3.715,0,6.962-2.731,7.503-6.517
			l9.189-64.314h16.185v63.241c0,4.192,3.398,7.589,7.589,7.589c4.191,0,7.589-3.397,7.589-7.589v-63.241h15.178v63.241
			c0,4.192,3.398,7.589,7.589,7.589c4.191,0,7.589-3.397,7.589-7.589v-63.241h16.185l9.189,64.314
			c0.541,3.786,3.788,6.517,7.504,6.517c0.357,0,0.719-0.026,1.082-0.077c4.149-0.593,7.032-4.437,6.44-8.586l-8.882-62.168h15.023
			l9.189,64.314c0.541,3.786,3.788,6.517,7.504,6.517c0.357,0,0.719-0.026,1.082-0.077c4.149-0.593,7.032-4.437,6.44-8.586
			l-8.882-62.168h1.368c15.343,0,27.826-12.483,27.826-27.826c0-4.553-1.106-8.85-3.053-12.648h25.82
			c4.191,0,7.589-3.397,7.589-7.589v-43.002h31.424l99.69,39.875c0.006,0.002,0.012,0.005,0.019,0.007l0.123,0.049
			c0.067,0.027,0.134,0.045,0.201,0.069c0.147,0.054,0.294,0.109,0.445,0.154c0.111,0.033,0.223,0.058,0.335,0.086
			c0.121,0.03,0.241,0.063,0.364,0.088c0.182,0.036,0.363,0.06,0.545,0.083c0.057,0.007,0.113,0.019,0.17,0.024
			c0.252,0.026,0.505,0.04,0.756,0.04c0.026,0,0.051-0.006,0.077-0.006c0.311-0.003,0.616-0.029,0.918-0.068
			c0.086-0.012,0.171-0.025,0.257-0.04c0.316-0.052,0.626-0.12,0.928-0.209c0.01-0.003,0.021-0.005,0.031-0.008
			c0.328-0.1,0.644-0.225,0.951-0.367c0.057-0.026,0.114-0.054,0.17-0.082c0.287-0.14,0.566-0.294,0.832-0.469
			c0.018-0.012,0.038-0.022,0.056-0.034c0.271-0.181,0.525-0.383,0.769-0.597c0.068-0.059,0.133-0.12,0.199-0.181
			c0.234-0.219,0.458-0.448,0.663-0.695c0.021-0.026,0.04-0.053,0.061-0.079c0.199-0.247,0.379-0.509,0.546-0.78
			c0.038-0.061,0.076-0.122,0.112-0.184c0.175-0.303,0.333-0.618,0.465-0.946c0.004-0.011,0.01-0.02,0.014-0.03
			c0.021-0.052,0.035-0.105,0.054-0.158c0.064-0.169,0.125-0.339,0.176-0.513c0.029-0.097,0.05-0.195,0.075-0.292
			c0.036-0.14,0.071-0.28,0.099-0.423c0.026-0.137,0.044-0.274,0.063-0.411c0.014-0.106,0.031-0.21,0.041-0.317
			c0.016-0.174,0.022-0.347,0.026-0.52c0.001-0.062,0.009-0.123,0.009-0.185v-0.13C512,377.291,512,377.283,512,377.275z
			 M31.365,301.066l-16.187,5.223v-29.744l16.187,5.222V301.066z M137.61,182.302c9.272-0.785,18.287-2.989,26.877-6.62
			c10.543-4.462,20.004-10.837,28.139-18.972c8.126-8.126,14.51-17.597,18.972-28.14c2.295-5.431,4.027-11.03,5.191-16.756h18.744
			c3.846,18.91,13.819,36.141,28.479,48.954c7.892,6.911,16.847,12.304,26.602,16.038c7.742,2.971,15.808,4.808,24.07,5.509v5.387
			H137.61V182.302z M46.543,299.008V283.83h86.007v15.178H46.543z M312.156,420.43H140.14c-6.974,0-12.648-5.674-12.648-12.648
			s5.674-12.648,12.648-12.648h172.016c6.974,0,12.648,5.674,12.648,12.648C324.804,414.756,319.13,420.43,312.156,420.43z
			 M355.159,379.956h-43.004H140.14H97.138v-65.771h43c4.191,0,7.589-3.397,7.589-7.589V276.24c0-4.192-3.398-7.589-7.589-7.589h-43
			v-65.773h258.021V379.956z M395.634,329.365h-25.297v-75.891h25.297V329.365z M496.822,366.219l-86.01-34.403v-80.793
			l86.01-34.403V366.219z"/>
	</g>
</g>
<g>
	<g>
		<path d="M216.029,268.652c-12.554,0-22.768,10.214-22.768,22.769c0,12.553,10.213,22.767,22.768,22.767
			c12.554,0,22.768-10.214,22.768-22.767C238.797,278.866,228.583,268.652,216.029,268.652z M216.029,299.009
			c-4.185,0-7.59-3.404-7.59-7.589c0-4.186,3.405-7.591,7.59-7.591s7.59,3.405,7.59,7.591
			C223.619,295.605,220.214,299.009,216.029,299.009z"/>
	</g>
</g>
<g>
	<g>
		<path d="M286.86,268.652c-12.554,0-22.768,10.214-22.768,22.769c0,12.553,10.213,22.767,22.768,22.767
			c12.554,0,22.768-10.214,22.768-22.767C309.628,278.866,299.414,268.652,286.86,268.652z M286.86,299.009
			c-4.185,0-7.59-3.404-7.59-7.589c0-4.186,3.405-7.591,7.59-7.591s7.59,3.405,7.59,7.591
			C294.45,295.605,291.045,299.009,286.86,299.009z"/>
	</g>
</g>
<g>
</g>
<g>
</g>
<g>
</g>
<g>
</g>
<g>
</g>
<g>
</g>
<g>
</g>
<g>
</g>
<g>
</g>
<g>
</g>
<g>
</g>
<g>
</g>
<g>
</g>
<g>
</g>
<g>
</g>
</svg>
